<svg width="3642" height="1934" viewBox="0 0 3642 1934" fill="none" xmlns="http://www.w3.org/2000/svg">
<g clip-path="url(#clip0_49_342)">
<path d="M3658.5 1915.35C3658.5 2427.13 2840.05 2842 1830.44 2842C820.824 2842 -628.751 2330.5 -8.75031 1698.5C611.25 1066.5 1081.4 1654.88 1830.44 988.701C2579.47 322.522 3658.5 1403.58 3658.5 1915.35Z" fill="url(#paint0_linear_49_342)"/>
<ellipse cx="2375.75" cy="1384" rx="281" ry="50" fill="#2D4F87" fill-opacity="0.2"/>
<path d="M2241.05 418.687C2250.07 420.41 2262.04 421.723 2271.32 422.98L2325.66 430.328L2491.43 452.724L2706.24 481.75C2743.67 486.807 2784.97 493.312 2822.12 497.098C2821.22 500.05 2820.29 503.026 2819.23 505.926C2811.67 526.629 2805.39 547.798 2798.85 568.838C2798.26 570.707 2798.11 571.697 2796.87 573.234C2795.88 573.608 2795.57 573.765 2794.48 573.61C2773.85 570.686 2753.11 567.932 2732.47 565.138L2601.45 547.427L2189.81 491.842C2198.47 471.649 2211.2 451.8 2225.41 435.163C2230 429.796 2235.19 422.683 2241.05 418.687Z" fill="black"/>
<path d="M2533.35 358.131C2540.17 358.817 2546.91 359.729 2553.72 360.611C2640.89 371.895 2728.35 387.301 2811.42 416.777C2821.97 420.521 2832.82 425.286 2843.25 429.448L2827.99 478.325L2574.7 444.041L2366.02 415.846C2331.94 411.24 2292.74 404.929 2259 401.5C2261.94 399.222 2264.75 396.466 2267.71 394.274C2302.3 368.706 2343.08 350.972 2386.25 348.782C2435.67 346.273 2484.6 352.786 2533.35 358.131Z" fill="black"/>
<path d="M2437.03 645.474C2541.12 746.561 2607.44 755.542 2739.78 683.978" stroke="black" stroke-width="15"/>
<path d="M2152.34 581.512C2217.53 590.553 2283.2 601.5 2348.41 610.354C2341.3 639.817 2329.85 669.673 2321.3 698.704C2303.67 758.626 2284.9 818.066 2266.67 877.799C2258.99 902.951 2244.51 941.372 2260.17 965.622C2272.1 983.153 2306.36 983.837 2325.84 986.452L2406.94 997.375L2431.88 1000.75C2420.96 1019.16 2406.12 1040.58 2388.01 1058.31C2367.7 1078.19 2343.99 1092.74 2317.68 1094.16C2291.66 1095.57 2261.25 1084.22 2227.17 1048.41L2221.74 1053.58L2216.3 1058.75C2252.38 1096.65 2286.79 1110.86 2318.5 1109.14C2349.93 1107.44 2376.9 1090.17 2398.51 1069.03C2419.75 1048.24 2436.48 1023.03 2447.97 1002.92L2559.61 1018.02C2587.48 1021.79 2616.99 1026.31 2644.8 1029.29C2637.73 1047.21 2632.85 1067.11 2626.21 1085.32C2614.95 1116.18 2604.49 1147.51 2594.48 1178.8C2591.89 1185.91 2589.91 1192.97 2587.21 1200.2L2586.46 1200.2C2584.06 1200.17 2581.51 1199.84 2579.1 1199.68C2550.65 1197.83 2522.44 1194.15 2494.12 1190.84C2450.84 1185.67 2407.64 1179.8 2364.55 1173.24C2278.33 1160.42 2200.31 1150.73 2136.38 1084.67C2084.81 1031.17 2056.76 959.292 2058.45 885.012C2059.47 824.839 2072.63 762.279 2092.41 705.652C2102.82 675.857 2114.07 645.964 2130.16 618.692C2135.58 609.509 2145.3 588.331 2152.34 581.512Z" fill="black"/>
<path d="M2290.8 1348.09C2282 1290.12 2289.12 1243.5 2323.42 1135" stroke="black" stroke-width="15"/>
<path d="M2462.41 1348.09C2471.21 1290.12 2464.09 1243.5 2429.79 1135" stroke="black" stroke-width="15"/>
<path d="M2203.5 1340.64C2202.82 1346.35 2202.14 1352.06 2201.46 1357.77C2202.81 1359.87 2204.19 1361.78 2205.59 1363.5C2211.18 1370.39 2217.14 1374.23 2223.47 1375.03C2245.6 1377.82 2268.24 1376.47 2291.36 1370.97C2293.02 1370.58 2294.67 1370.16 2296.33 1369.73C2297.01 1364.02 2297.69 1358.31 2298.37 1352.6C2296.87 1351.77 2295.36 1350.95 2293.85 1350.16C2272.71 1339.08 2251.07 1332.15 2228.93 1329.35C2222.6 1328.56 2215.92 1330.8 2208.86 1336.1C2207.1 1337.42 2205.31 1338.93 2203.5 1340.64Z" fill="black"/>
<path d="M2549 1340.64C2549.68 1346.35 2550.36 1352.06 2551.04 1357.77C2549.69 1359.87 2548.31 1361.78 2546.91 1363.5C2541.32 1370.39 2535.36 1374.23 2529.03 1375.03C2506.9 1377.82 2484.26 1376.47 2461.14 1370.97C2459.48 1370.58 2457.83 1370.16 2456.17 1369.73C2455.49 1364.02 2454.81 1358.31 2454.13 1352.6C2455.63 1351.77 2457.14 1350.95 2458.65 1350.16C2479.79 1339.08 2501.43 1332.15 2523.57 1329.35C2529.9 1328.56 2536.58 1330.8 2543.64 1336.1C2545.4 1337.42 2547.19 1338.93 2549 1340.64Z" fill="black"/>
<path d="M2106.11 1189.2C2099.03 1143.72 2104.76 1107.14 2132.4 1022" stroke="black" stroke-width="15"/>
<path d="M2113.58 1256.75C2119.11 1255.17 2124.63 1253.58 2130.16 1252C2131.65 1250.24 2132.95 1248.53 2134.07 1246.87C2138.55 1240.24 2140.09 1234.46 2138.67 1229.53C2133.72 1212.25 2124.75 1196.13 2111.77 1181.15C2110.85 1180.08 2109.9 1179.02 2108.93 1177.96C2103.4 1179.55 2097.88 1181.13 2092.35 1182.72C2092.09 1184.13 2091.85 1185.53 2091.63 1186.93C2088.56 1206.51 2089.5 1224.93 2094.45 1242.21C2095.87 1247.14 2100.23 1251.23 2107.54 1254.48C2109.37 1255.29 2111.38 1256.05 2113.58 1256.75Z" fill="black"/>
<path d="M2647.4 1198.2C2654.49 1152.72 2648.75 1116.14 2621.11 1031" stroke="black" stroke-width="15"/>
<path d="M2639.94 1265.75C2634.41 1264.17 2628.88 1262.58 2623.35 1261C2621.87 1259.24 2620.56 1257.53 2619.44 1255.87C2614.96 1249.24 2613.43 1243.46 2614.84 1238.53C2619.8 1221.25 2628.76 1205.13 2641.74 1190.15C2642.67 1189.08 2643.62 1188.02 2644.58 1186.96C2650.11 1188.55 2655.64 1190.13 2661.17 1191.72C2661.43 1193.13 2661.67 1194.53 2661.89 1195.93C2664.96 1215.51 2664.02 1233.93 2659.06 1251.21C2657.65 1256.14 2653.28 1260.23 2645.97 1263.48C2644.14 1264.29 2642.13 1265.05 2639.94 1265.75Z" fill="black"/>
</g>
<defs>
<linearGradient id="paint0_linear_49_342" x1="1891.25" y1="840" x2="1837.25" y2="2029" gradientUnits="userSpaceOnUse">
<stop offset="0.509615" stop-color="#2D4F87" stop-opacity="0.08"/>
<stop offset="1" stop-color="#EFEFF6" stop-opacity="0"/>
</linearGradient>
<clipPath id="clip0_49_342">
<rect width="3642" height="1934" fill="white"/>
</clipPath>
</defs>
</svg>
