<svg width="3323" height="1934" viewBox="0 0 3323 1934" fill="none" xmlns="http://www.w3.org/2000/svg">
<g clip-path="url(#clip0_92_63)">
<mask id="path-1-inside-1_92_63" fill="white">
<ellipse cx="2065.06" cy="2103.46" rx="1139.24" ry="706.62" transform="rotate(-14.383 2065.06 2103.46)"/>
</mask>
<ellipse cx="2065.06" cy="2103.46" rx="1139.24" ry="706.62" transform="rotate(-14.383 2065.06 2103.46)" fill="url(#paint0_radial_92_63)"/>
<path d="M3168.59 1820.47C3193.01 1915.75 3182.93 2017.5 3148.92 2109.02C2996.75 2478.52 2610.43 2685.47 2239.37 2783.21C1793.77 2894.18 1144.43 2878.04 967.823 2384.84C967.823 2384.84 967.823 2384.84 967.823 2384.84C885.289 1867.51 1446.73 1540.88 1890.74 1423.71C2263.05 1330.82 2701.28 1326.32 3012.49 1577C3086.35 1640.86 3144.15 1725.2 3168.59 1820.47C3145 1724.99 3087.78 1639.85 3014.12 1575.15C2703.51 1320.85 2262.93 1322.52 1888.32 1414.27C1442.24 1530.79 872.311 1854.48 955.23 2388.07C955.23 2388.07 955.23 2388.07 955.23 2388.07C1139.33 2895.71 1794.69 2905.18 2241.8 2792.66C2614.33 2692.81 3001.34 2482.25 3151.24 2109.86C3184.67 2017.7 3193.86 1915.52 3168.59 1820.47ZM3168.59 1820.47" fill="url(#paint1_linear_92_63)" mask="url(#path-1-inside-1_92_63)"/>
<path d="M2142.36 729.147C2148.3 730.119 2156.17 730.772 2162.27 731.434L2198 735.304L2306.97 747.097L2448.2 762.382C2472.81 765.045 2499.98 768.59 2524.38 770.424C2523.84 772.375 2523.28 774.341 2522.64 776.26C2518.04 789.96 2514.3 803.941 2510.38 817.844C2510.03 819.079 2509.94 819.73 2509.15 820.759C2508.52 821.021 2508.32 821.13 2507.6 821.047C2494.03 819.49 2480.4 818.046 2466.83 816.574L2380.69 807.246L2110.06 777.98C2115.39 764.596 2123.38 751.367 2132.41 740.217C2135.32 736.62 2138.59 731.868 2142.36 729.147Z" fill="white"/>
<path d="M2332.8 684.378C2337.28 684.709 2341.71 685.189 2346.18 685.648C2403.48 691.527 2461.05 700.102 2515.97 717.973C2522.95 720.243 2530.14 723.177 2537.04 725.724L2527.9 758.02L2361.38 739.958L2224.18 725.112C2201.78 722.686 2175.99 719.232 2153.82 717.572C2155.71 716.028 2157.5 714.173 2159.41 712.685C2181.62 695.327 2208.03 682.996 2236.27 680.81C2268.6 678.306 2300.77 681.723 2332.8 684.378Z" fill="white"/>
<path d="M2274.68 874.361C2344.62 938.797 2388.22 943.528 2473.68 894.327" stroke="white" stroke-width="15"/>
<path d="M2087.07 837.397C2129.94 842.187 2173.14 848.219 2216.02 852.887C2211.87 872.319 2204.89 892.084 2199.79 911.257C2189.28 950.834 2178.01 990.114 2167.1 1029.58C2162.51 1046.19 2153.69 1071.62 2164.37 1087.24C2172.49 1098.53 2194.94 1098.38 2207.75 1099.75L2261.07 1105.5L2274.67 1106.97C2267.96 1118.89 2258.92 1132.55 2247.87 1143.97C2235.13 1157.12 2220.4 1166.59 2204.07 1167.91C2188.02 1169.2 2168.61 1162.76 2146.01 1140.24L2140.72 1145.56L2135.42 1150.87C2160.07 1175.43 2183.55 1184.61 2205.28 1182.86C2226.72 1181.12 2244.64 1168.86 2258.64 1154.4C2272.7 1139.89 2283.5 1122.46 2290.74 1108.85C2290.77 1108.81 2290.79 1108.76 2290.81 1108.72L2361.44 1116.37C2379.76 1118.36 2399.17 1120.81 2417.45 1122.28C2413.12 1134.14 2410.27 1147.27 2406.24 1159.32C2399.4 1179.74 2393.08 1200.45 2387.07 1221.13C2385.5 1225.84 2384.32 1230.5 2382.68 1235.28L2382.18 1235.29C2380.61 1235.32 2378.94 1235.15 2377.36 1235.09C2358.69 1234.37 2340.14 1232.45 2321.53 1230.77C2293.09 1228.13 2264.69 1225.04 2236.34 1221.49C2179.64 1214.59 2128.37 1209.59 2085.34 1167.42C2050.63 1133.25 2031.01 1086.63 2030.83 1037.93C2030.46 998.475 2037.99 957.248 2049.97 919.794C2056.27 900.087 2063.12 880.3 2073.19 862.148C2076.58 856.035 2082.58 841.988 2087.07 837.397Z" fill="white"/>
<path d="M2183.48 1371.2C2176.4 1325.72 2182.13 1289.14 2209.77 1204" stroke="white" stroke-width="15"/>
<path d="M2321.77 1371.2C2328.85 1325.72 2323.12 1289.14 2295.48 1204" stroke="white" stroke-width="15"/>
<path d="M2113.97 1358.61C2113.27 1364.32 2112.57 1370.03 2111.87 1375.73C2112.91 1377.79 2113.97 1379.66 2115.06 1381.34C2119.41 1388.05 2124.13 1391.72 2129.23 1392.35C2147.07 1394.54 2165.41 1392.58 2184.27 1386.49C2185.61 1386.05 2186.96 1385.6 2188.31 1385.12C2189.02 1379.41 2189.72 1373.7 2190.42 1368C2189.22 1367.21 2188.02 1366.44 2186.82 1365.69C2170 1355.21 2152.67 1348.88 2134.83 1346.69C2129.74 1346.06 2124.27 1348.48 2118.42 1353.94C2116.96 1355.31 2115.48 1356.86 2113.97 1358.61Z" fill="white"/>
<path d="M2390.71 1358.61C2391.41 1364.32 2392.11 1370.03 2392.81 1375.73C2391.77 1377.79 2390.71 1379.66 2389.62 1381.34C2385.27 1388.05 2380.55 1391.72 2375.45 1392.35C2357.61 1394.54 2339.27 1392.58 2320.41 1386.49C2319.07 1386.05 2317.72 1385.6 2316.37 1385.12C2315.66 1379.41 2314.96 1373.7 2314.26 1368C2315.46 1367.21 2316.66 1366.44 2317.86 1365.69C2334.68 1355.21 2352.01 1348.88 2369.85 1346.69C2374.94 1346.06 2380.41 1348.48 2386.26 1353.94C2387.72 1355.31 2389.2 1356.86 2390.71 1358.61Z" fill="white"/>
<path d="M2323.61 1164.81C2446.07 1107.01 2449.44 1278 2449.44 1278" stroke="white" stroke-width="15"/>
<ellipse cx="25" cy="23" rx="25" ry="23" transform="matrix(0.972532 0.232767 0.232767 -0.972532 2418.63 1295.62)" fill="white"/>
<path d="M2152.8 1136.81C2030.33 1079.01 2026.96 1250 2026.96 1250" stroke="white" stroke-width="15"/>
<ellipse cx="2028.11" cy="1251.07" rx="25" ry="23" transform="rotate(166.54 2028.11 1251.07)" fill="white"/>
</g>
<defs>
<radialGradient id="paint0_radial_92_63" cx="0" cy="0" r="1" gradientUnits="userSpaceOnUse" gradientTransform="translate(2430.09 1449.17) rotate(13.4045) scale(322.047 62.4423)">
<stop stop-color="#BBBBBB"/>
<stop offset="1" stop-color="#262730" stop-opacity="0"/>
</radialGradient>
<linearGradient id="paint1_linear_92_63" x1="1773.16" y1="1597.3" x2="1763.74" y2="1720.74" gradientUnits="userSpaceOnUse">
<stop stop-color="white"/>
<stop offset="1" stop-color="#3A3A3A" stop-opacity="0"/>
</linearGradient>
<clipPath id="clip0_92_63">
<rect width="3323" height="1934" fill="white"/>
</clipPath>
</defs>
</svg>
