<svg width="789" height="729" viewBox="0 0 789 729" fill="none" xmlns="http://www.w3.org/2000/svg">
<path d="M204.34 257.837C247.474 257.987 291.077 259.335 334.205 259.363C332.175 279.128 327.355 299.53 324.353 319.141C318.158 359.619 311.187 399.883 304.588 440.29C301.808 457.305 295.775 483.537 308.074 497.916C317.364 508.258 339.667 505.696 352.551 505.684L406.177 505.661L507.137 505.672C525.563 505.676 545.127 506.019 563.449 505.514C560.429 517.779 559.007 531.137 556.291 543.548C551.687 564.582 547.642 585.859 543.89 607.066C542.83 611.909 542.16 616.672 541.043 621.603L540.554 621.669C538.993 621.862 537.314 621.873 535.734 621.981C517.092 623.276 498.449 623.364 479.768 623.696C451.205 624.135 422.639 624.116 394.076 623.638C336.959 622.875 285.443 623.43 238.132 586.128C199.948 555.897 175.421 511.66 170.004 463.254C165.385 424.072 168.442 382.273 176.32 343.748C180.465 323.477 185.145 303.069 193.203 283.939C195.917 277.497 200.369 262.885 204.34 257.837Z" fill="#2D4F87"/>
<path d="M247.83 163.429C253.838 163.757 261.727 163.559 267.866 163.561L303.8 163.564L413.416 163.563L555.463 163.563C580.216 163.562 607.611 164.163 632.067 163.361C631.739 165.358 631.4 167.373 630.965 169.35C627.871 183.464 625.652 197.768 623.248 212.012C623.033 213.277 623.017 213.934 622.347 215.042C621.742 215.371 621.553 215.5 620.829 215.496C607.176 215.407 593.468 215.438 579.815 215.435L493.175 215.43L220.97 215.454C224.828 201.575 231.348 187.562 239.122 175.506C241.63 171.616 244.373 166.54 247.83 163.429Z" fill="#2D4F87"/>
<path d="M432.34 98.4285C436.832 98.2751 441.285 98.2763 445.785 98.2512C503.384 97.9303 561.538 100.261 618.067 112.119C625.248 113.625 632.714 115.768 639.849 117.557L634.232 150.65L466.735 150.611L328.736 150.613C306.203 150.612 280.191 149.954 257.978 150.688C259.687 148.95 261.269 146.912 263.002 145.228C283.22 125.581 308.151 110.48 335.988 105.268C367.864 99.2997 400.209 99.2353 432.34 98.4285Z" fill="#2D4F87"/>
</svg>
