<svg width="789" height="729" viewBox="0 0 789 729" fill="none" xmlns="http://www.w3.org/2000/svg">
<path d="M247.83 163.429C253.838 163.757 261.727 163.559 267.866 163.561L303.8 163.564L413.416 163.563L555.463 163.563C580.216 163.562 607.611 164.163 632.067 163.361C631.74 165.358 631.401 167.373 630.965 169.35C627.872 183.464 625.653 197.768 623.249 212.012C623.033 213.277 623.017 213.934 622.347 215.042C621.742 215.371 621.553 215.5 620.829 215.496C607.176 215.407 593.468 215.438 579.815 215.435L493.175 215.43L220.971 215.454C224.829 201.575 231.349 187.562 239.122 175.506C241.63 171.616 244.373 166.54 247.83 163.429Z" fill="black"/>
<path d="M432.34 98.4285C436.832 98.2752 441.285 98.2763 445.785 98.2513C503.384 97.9303 561.538 100.261 618.067 112.119C625.248 113.625 632.714 115.768 639.849 117.557L634.232 150.65L466.735 150.611L328.736 150.613C306.203 150.613 280.191 149.954 257.978 150.688C259.687 148.95 261.269 146.912 263.002 145.228C283.22 125.581 308.151 110.48 335.988 105.268C367.864 99.2997 400.209 99.2354 432.34 98.4285Z" fill="black"/>
<path d="M395 293.562C471.474 350.098 515.329 350.111 594.994 292" stroke="black" stroke-width="15"/>
<path fill-rule="evenodd" clip-rule="evenodd" d="M204.505 277C247.64 277.15 291.243 278.498 334.371 278.525C332.341 298.291 327.521 318.692 324.519 338.303C318.323 378.781 311.352 419.045 304.753 459.452C301.974 476.467 295.941 502.699 308.24 517.079C317.529 527.421 339.833 524.858 352.717 524.847L406.342 524.823L420.023 524.824C414.63 537.394 407.115 551.952 397.356 564.486C386.104 578.938 372.479 589.932 356.387 593.001C340.571 596.018 320.578 591.703 295.692 571.745L291 577.597L286.307 583.447C313.453 605.217 337.789 611.819 359.198 607.735C380.331 603.704 396.826 589.582 409.191 573.702C421.603 557.762 430.469 539.272 436.205 524.963C436.223 524.917 436.24 524.872 436.258 524.826L507.302 524.835C525.729 524.839 545.292 525.182 563.615 524.677C560.594 536.941 559.173 550.3 556.457 562.711C551.853 583.745 547.808 605.021 544.055 626.229C542.996 631.072 542.326 635.834 541.209 640.766L540.719 640.831C539.159 641.024 537.479 641.036 535.9 641.144C517.258 642.438 498.615 642.527 479.934 642.858C451.371 643.298 422.804 643.279 394.242 642.801C337.125 642.038 285.609 642.592 238.298 605.291C200.114 575.06 175.587 530.823 170.169 482.417C165.551 443.235 168.608 401.436 176.486 362.911C180.631 342.64 185.31 322.231 193.369 303.101C196.082 296.658 200.534 282.047 204.505 277Z" fill="black"/>
<path d="M566 419.02C581.333 419.02 596.667 419.02 612 419.02C611.617 418.103 611.233 417.186 610.85 416.269C603.95 399.763 597.05 383.257 590.15 366.751C589.767 365.834 589.383 364.917 589 364C588.617 364.917 588.233 365.834 587.85 366.751C580.95 383.257 574.05 399.763 567.15 416.269C566.767 417.186 566.383 418.103 566 419.02Z" fill="black"/>
</svg>
