<svg width="789" height="729" viewBox="0 0 789 729" fill="none" xmlns="http://www.w3.org/2000/svg">
<path d="M247.83 163.429C253.838 163.757 261.727 163.559 267.866 163.561L303.8 163.564L413.416 163.563L555.463 163.563C580.216 163.562 607.611 164.163 632.067 163.361C631.74 165.358 631.401 167.373 630.965 169.35C627.872 183.464 625.653 197.768 623.249 212.012C623.033 213.277 623.017 213.934 622.347 215.042C621.742 215.371 621.553 215.5 620.829 215.496C607.176 215.407 593.468 215.438 579.815 215.435L493.175 215.43L220.971 215.454C224.829 201.575 231.349 187.562 239.122 175.506C241.63 171.616 244.373 166.54 247.83 163.429Z" fill="black"/>
<path d="M432.34 98.4285C436.832 98.2752 441.285 98.2763 445.785 98.2513C503.384 97.9303 561.538 100.261 618.067 112.119C625.248 113.625 632.714 115.768 639.849 117.557L634.232 150.65L466.735 150.611L328.736 150.613C306.203 150.613 280.191 149.954 257.978 150.688C259.687 148.95 261.269 146.912 263.002 145.228C283.22 125.581 308.151 110.48 335.988 105.268C367.864 99.2997 400.209 99.2354 432.34 98.4285Z" fill="black"/>
<path d="M367.591 374.727V361.318L407.091 298.909H418.273V318H411.455L384.864 360.136V360.864H440V374.727H367.591ZM412 392V370.636L412.182 364.636V298.909H428.091V392H412ZM488.932 393.773C481.447 393.773 475.023 391.879 469.659 388.091C464.326 384.273 460.22 378.773 457.341 371.591C454.492 364.379 453.068 355.697 453.068 345.545C453.098 335.394 454.538 326.758 457.386 319.636C460.265 312.485 464.371 307.03 469.705 303.273C475.068 299.515 481.477 297.636 488.932 297.636C496.386 297.636 502.795 299.515 508.159 303.273C513.523 307.03 517.629 312.485 520.477 319.636C523.356 326.788 524.795 335.424 524.795 345.545C524.795 355.727 523.356 364.424 520.477 371.636C517.629 378.818 513.523 384.303 508.159 388.091C502.826 391.879 496.417 393.773 488.932 393.773ZM488.932 379.545C494.75 379.545 499.341 376.682 502.705 370.955C506.098 365.197 507.795 356.727 507.795 345.545C507.795 338.152 507.023 331.939 505.477 326.909C503.932 321.879 501.75 318.091 498.932 315.545C496.114 312.97 492.78 311.682 488.932 311.682C483.144 311.682 478.568 314.561 475.205 320.318C471.841 326.045 470.144 334.455 470.114 345.545C470.083 352.97 470.826 359.212 472.341 364.273C473.886 369.333 476.068 373.152 478.886 375.727C481.705 378.273 485.053 379.545 488.932 379.545ZM538.216 374.727V361.318L577.716 298.909H588.898V318H582.08L555.489 360.136V360.864H610.625V374.727H538.216ZM582.625 392V370.636L582.807 364.636V298.909H598.716V392H582.625Z" fill="black"/>
<path fill-rule="evenodd" clip-rule="evenodd" d="M204.506 277C247.64 277.15 291.244 278.498 334.371 278.525C332.341 298.291 327.52 318.692 324.519 338.303C318.323 378.781 311.352 419.045 304.753 459.452C301.973 476.467 295.941 502.699 308.24 517.079C317.53 527.42 339.832 524.858 352.717 524.847L406.343 524.823L420.022 524.824C414.629 537.394 407.116 551.952 397.356 564.486C386.104 578.938 372.478 589.932 356.387 593.001C340.571 596.018 320.579 591.703 295.692 571.745L291 577.597L286.308 583.447C313.453 605.217 337.79 611.819 359.198 607.735C380.331 603.704 396.827 589.582 409.191 573.702C421.603 557.762 430.469 539.272 436.204 524.963C436.222 524.917 436.24 524.872 436.258 524.826L507.303 524.835C525.729 524.839 545.293 525.182 563.615 524.677C560.595 536.941 559.173 550.3 556.457 562.711C551.853 583.745 547.808 605.021 544.056 626.229C542.996 631.072 542.325 635.834 541.208 640.766L540.719 640.831C539.159 641.024 537.479 641.036 535.899 641.144C517.257 642.438 498.615 642.527 479.934 642.858C451.371 643.298 422.805 643.279 394.242 642.801C337.125 642.038 285.609 642.593 238.298 605.291C200.114 575.06 175.586 530.823 170.169 482.417C165.55 443.235 168.608 401.436 176.485 362.911C180.631 342.64 185.31 322.231 193.369 303.101C196.083 296.658 200.535 282.047 204.506 277Z" fill="black"/>
</svg>
