<svg width="1204" height="729" viewBox="0 0 1204 729" fill="none" xmlns="http://www.w3.org/2000/svg">
<path d="M556.855 163.429C562.864 163.757 570.753 163.559 576.892 163.561L612.826 163.564L722.442 163.563L864.489 163.563C889.241 163.562 916.637 164.163 941.092 163.361C940.765 165.358 940.426 167.373 939.991 169.35C936.897 183.464 934.678 197.768 932.274 212.012C932.058 213.277 932.043 213.934 931.373 215.042C930.768 215.371 930.579 215.5 929.855 215.496C916.201 215.407 902.494 215.438 888.84 215.435L802.201 215.43L529.996 215.454C533.854 201.575 540.374 187.562 548.148 175.506C550.656 171.616 553.398 166.54 556.855 163.429Z" fill="white"/>
<path d="M741.365 98.4284C745.857 98.275 750.311 98.2762 754.81 98.2512C812.41 97.9302 870.564 100.261 927.092 112.119C934.273 113.625 941.739 115.768 948.874 117.557L943.257 150.65L775.76 150.611L637.762 150.613C615.228 150.612 589.216 149.954 567.003 150.688C568.713 148.95 570.295 146.912 572.028 145.228C592.246 125.581 617.176 110.48 645.014 105.268C676.889 99.2996 709.235 99.2352 741.365 98.4284Z" fill="white"/>
<path d="M704.025 293.562C780.499 350.098 824.354 350.111 904.019 292" stroke="white" stroke-width="15"/>
<path fill-rule="evenodd" clip-rule="evenodd" d="M513.531 277C556.665 277.15 600.268 278.498 643.396 278.525C641.366 298.291 636.546 318.692 633.544 338.303C627.349 378.781 620.378 419.045 613.779 459.452C610.999 476.467 604.966 502.699 617.265 517.079C626.554 527.421 648.858 524.858 661.743 524.847L715.368 524.823L729.048 524.824C723.655 537.394 716.141 551.952 706.381 564.486C695.129 578.938 681.504 589.932 665.413 593.001C649.596 596.018 629.604 591.703 604.717 571.745L600.025 577.597L595.333 583.447C622.478 605.217 646.815 611.819 668.223 607.735C689.356 603.704 705.852 589.582 718.216 573.702C730.628 557.762 739.495 539.272 745.23 524.963C745.248 524.917 745.266 524.872 745.284 524.826L816.328 524.835C834.754 524.839 854.318 525.182 872.64 524.677C869.62 536.941 868.198 550.3 865.482 562.711C860.878 583.745 856.833 605.021 853.081 626.229C852.021 631.072 851.351 635.834 850.234 640.766L849.745 640.831C848.184 641.024 846.505 641.036 844.925 641.144C826.283 642.438 807.64 642.527 788.96 642.858C760.397 643.298 731.83 643.279 703.267 642.801C646.15 642.038 594.635 642.592 547.324 605.291C509.139 575.06 484.612 530.823 479.195 482.417C474.576 443.235 477.634 401.436 485.511 362.911C489.657 342.64 494.335 322.231 502.394 303.101C505.107 296.658 509.56 282.047 513.531 277Z" fill="white"/>
<path d="M966.025 656H1203.03" stroke="white" stroke-width="15"/>
<path d="M414.025 635H537.525V658" stroke="white" stroke-width="15"/>
<path d="M0 660H638.035" stroke="white" stroke-width="15"/>
<path d="M372.035 427.5L424.635 659.501H100.016L47.416 427.5H372.035Z" stroke="white" stroke-width="15"/>
<ellipse cx="236.025" cy="544" rx="34" ry="40" fill="white"/>
<path d="M515.408 459.702C572.044 582.707 401.025 584.461 401.025 584.461" stroke="white" stroke-width="15"/>
<mask id="path-11-inside-1_14_46" fill="white">
<rect x="1008.03" y="513" width="157" height="126" rx="7"/>
</mask>
<rect x="1008.03" y="513" width="157" height="126" rx="7" stroke="white" stroke-width="30" mask="url(#path-11-inside-1_14_46)"/>
<mask id="path-12-inside-2_14_46" fill="white">
<rect x="1017.03" y="624" width="139" height="39" rx="7"/>
</mask>
<rect x="1017.03" y="624" width="139" height="39" rx="7" stroke="white" stroke-width="30" mask="url(#path-12-inside-2_14_46)"/>
<mask id="path-13-inside-3_14_46" fill="white">
<rect x="1151.03" y="556" width="42" height="56" rx="7"/>
</mask>
<rect x="1151.03" y="556" width="42" height="56" rx="7" stroke="white" stroke-width="30" mask="url(#path-13-inside-3_14_46)"/>
<rect x="1058.03" y="470" width="57" height="26" rx="7" fill="white"/>
</svg>
