<svg width="801" height="826" viewBox="0 0 801 826" fill="none" xmlns="http://www.w3.org/2000/svg">
<path d="M207.616 281.18C251.406 281.332 295.673 282.7 339.456 282.728C337.396 302.791 332.502 323.501 329.455 343.408C323.165 384.497 316.088 425.368 309.388 466.385C306.567 483.657 300.442 510.284 312.928 524.881C322.359 535.379 345.001 532.778 358.082 532.766L412.523 532.743L515.018 532.754C533.725 532.758 553.586 533.106 572.187 532.594C569.121 545.043 567.678 558.603 564.92 571.201C560.246 592.553 556.14 614.15 552.33 635.678C551.255 640.594 550.574 645.428 549.44 650.435L548.943 650.501C547.359 650.697 545.654 650.708 544.051 650.818C525.125 652.132 506.199 652.222 487.233 652.558C458.236 653.004 429.235 652.985 400.238 652.5C342.253 651.725 289.953 652.288 241.923 614.424C203.157 583.737 178.258 538.832 172.758 489.696C168.069 449.923 171.173 407.493 179.17 368.387C183.378 347.809 188.129 327.094 196.31 307.675C199.065 301.135 203.584 286.303 207.616 281.18Z" fill="black"/>
<path d="M251.599 165.895C257.699 166.228 265.708 166.027 271.94 166.029L308.42 166.032L419.703 166.031L563.911 166.031C589.04 166.03 616.852 166.64 641.68 165.826C641.347 167.853 641.003 169.899 640.561 171.906C637.421 186.233 635.168 200.752 632.727 215.211C632.508 216.495 632.493 217.162 631.812 218.287C631.198 218.621 631.006 218.752 630.271 218.748C616.41 218.657 602.494 218.689 588.633 218.686L500.676 218.681L224.331 218.705C228.248 204.616 234.867 190.392 242.759 178.154C245.305 174.206 248.089 169.053 251.599 165.895Z" fill="black"/>
<path d="M438.915 99.9137C443.476 99.758 447.997 99.7592 452.565 99.7338C511.041 99.408 570.079 101.774 627.467 113.811C634.758 115.339 642.337 117.515 649.581 119.331L643.878 152.923L473.834 152.884L333.736 152.886C310.86 152.885 284.452 152.216 261.901 152.962C263.637 151.197 265.243 149.129 267.003 147.42C287.528 127.476 312.838 112.147 341.099 106.856C373.459 100.798 406.296 100.733 438.915 99.9137Z" fill="black"/>
<path d="M401.008 297.992C478.645 355.38 523.167 355.394 604.043 296.406" stroke="black" stroke-width="15"/>
<path d="M560.14 572.101C665.787 656.816 708.868 491.303 708.868 491.303" stroke="black" stroke-width="15"/>
<path d="M339.364 803.204C332.279 757.72 338.014 721.136 365.651 636" stroke="black" stroke-width="15"/>
<path d="M186.364 661.204C179.279 615.72 185.014 579.136 212.651 494" stroke="black" stroke-width="15"/>
<path d="M477.651 803.204C484.736 757.72 479.001 721.136 451.364 636" stroke="black" stroke-width="15"/>
<path d="M718.938 540.885C716.315 540.774 713.692 540.663 711.07 540.553C710.72 538.468 710.392 536.385 710.085 534.303C707.329 515.563 706.342 496.897 707.126 478.306C707.91 459.716 710.465 441.199 714.789 422.758C715.27 420.709 715.772 418.661 716.297 416.614C718.919 416.725 721.542 416.836 724.165 416.946C724.515 419.03 724.843 421.114 725.149 423.196C727.906 441.936 728.892 460.602 728.108 479.193C727.324 497.783 724.77 516.299 720.445 534.741C719.964 536.79 719.462 538.838 718.938 540.885Z" fill="black"/>
<path d="M193.83 728.753C199.357 727.168 204.884 725.584 210.411 723.999C211.9 722.236 213.204 720.527 214.324 718.87C218.805 712.244 220.337 706.463 218.922 701.527C213.969 684.252 205.003 668.128 192.024 653.153C191.097 652.084 190.15 651.02 189.182 649.962C183.655 651.547 178.127 653.132 172.6 654.717C172.34 656.127 172.1 657.531 171.88 658.93C168.809 678.506 169.75 696.931 174.704 714.207C176.119 719.142 180.483 723.233 187.794 726.478C189.621 727.289 191.633 728.048 193.83 728.753Z" fill="black"/>
<path d="M269.854 790.611C269.153 796.318 268.453 802.025 267.752 807.732C268.792 809.791 269.856 811.66 270.943 813.338C275.292 820.051 280.015 823.721 285.111 824.347C302.949 826.537 321.295 824.584 340.15 818.488C341.496 818.053 342.846 817.596 344.198 817.119C344.899 811.411 345.599 805.704 346.3 799.997C345.104 799.207 343.905 798.437 342.704 797.689C325.884 787.213 308.555 780.88 290.717 778.689C285.621 778.064 280.151 780.482 274.307 785.944C272.846 787.309 271.362 788.865 269.854 790.611Z" fill="black"/>
<path d="M546.592 790.611C547.292 796.318 547.993 802.025 548.694 807.732C547.653 809.791 546.59 811.66 545.502 813.338C541.153 820.051 536.431 823.721 531.334 824.347C513.497 826.537 495.151 824.584 476.296 818.488C474.949 818.053 473.6 817.596 472.248 817.119C471.547 811.411 470.847 805.704 470.146 799.997C471.342 799.207 472.541 798.437 473.742 797.689C490.562 787.213 507.891 780.88 525.728 778.689C530.825 778.064 536.295 780.482 542.139 785.944C543.6 787.309 545.084 788.865 546.592 790.611Z" fill="black"/>
<ellipse cx="717" cy="490" rx="25" ry="23" fill="black"/>
<circle cx="717.5" cy="360.5" r="59.5" stroke="black" stroke-width="10"/>
</svg>
