<svg width="1099" height="821" viewBox="0 0 1099 821" fill="none" xmlns="http://www.w3.org/2000/svg">
<path d="M556.855 163.43C562.864 163.757 570.753 163.559 576.892 163.561L612.826 163.564L722.442 163.563L864.489 163.563C889.241 163.562 916.637 164.163 941.092 163.361C940.765 165.358 940.426 167.373 939.991 169.351C936.897 183.465 934.678 197.768 932.274 212.012C932.058 213.277 932.043 213.934 931.373 215.042C930.768 215.371 930.579 215.501 929.855 215.496C916.201 215.407 902.494 215.438 888.84 215.436L802.201 215.431L529.996 215.454C533.854 201.575 540.374 187.562 548.148 175.506C550.656 171.617 553.398 166.54 556.855 163.43Z" fill="black"/>
<path d="M741.365 98.4286C745.857 98.2753 750.311 98.2764 754.81 98.2514C812.41 97.9304 870.564 100.261 927.092 112.119C934.273 113.625 941.739 115.768 948.874 117.557L943.257 150.65L775.76 150.611L637.762 150.613C615.228 150.613 589.216 149.954 567.003 150.688C568.713 148.95 570.295 146.913 572.028 145.228C592.246 125.581 617.176 110.48 645.014 105.268C676.889 99.2998 709.235 99.2355 741.365 98.4286Z" fill="black"/>
<path d="M704.025 293.562C780.499 350.098 824.354 350.111 904.019 292" stroke="black" stroke-width="15"/>
<path d="M513.532 277C556.666 277.15 600.269 278.498 643.397 278.525C641.367 298.291 636.547 318.692 633.545 338.303C627.35 378.781 620.378 419.045 613.779 459.452C610.999 476.467 604.967 502.699 617.266 517.079C626.555 527.42 648.858 524.858 661.743 524.847L715.369 524.823L729.048 524.824C723.655 537.394 716.142 551.952 706.382 564.486C695.13 578.938 681.504 589.932 665.413 593.001C649.596 596.018 629.604 591.703 604.718 571.745L600.026 577.597L595.334 583.447C622.479 605.217 646.816 611.819 668.224 607.735C689.357 603.704 705.853 589.582 718.217 573.702C730.629 557.762 739.496 539.272 745.231 524.963C745.249 524.917 745.267 524.872 745.285 524.826L816.329 524.835C834.755 524.839 854.319 525.182 872.641 524.677C869.621 536.941 868.199 550.3 865.483 562.711C860.879 583.745 856.834 605.021 853.082 626.229C852.022 631.072 851.352 635.834 850.235 640.766L849.746 640.831C848.185 641.024 846.505 641.036 844.925 641.144C826.283 642.438 807.64 642.527 788.959 642.858C760.397 643.298 731.831 643.279 703.268 642.801C646.151 642.038 594.635 642.593 547.324 605.291C509.139 575.06 484.612 530.823 479.195 482.417C474.576 443.235 477.634 401.436 485.511 362.911C489.657 342.64 494.336 322.231 502.395 303.101C505.108 296.658 509.561 282.047 513.532 277Z" fill="black"/>
<path d="M414.025 635H537.525V658" stroke="black" stroke-width="15"/>
<path d="M0 660H638.035" stroke="black" stroke-width="15"/>
<path d="M420.978 806.254C431.921 761.541 451.277 729.971 509.517 662" stroke="black" stroke-width="15"/>
<path d="M361.649 767.909C358.808 772.908 355.968 777.908 353.127 782.907C353.296 785.208 353.56 787.342 353.919 789.309C355.353 797.178 358.302 802.381 362.767 804.918C378.392 813.796 396.079 819.045 415.828 820.666C417.239 820.781 418.66 820.879 420.092 820.957C422.932 815.958 425.773 810.959 428.614 805.959C427.813 804.77 427.002 803.599 426.181 802.446C414.68 786.309 401.117 773.802 385.492 764.923C381.028 762.387 375.048 762.516 367.554 765.312C365.68 766.011 363.712 766.877 361.649 767.909Z" fill="black"/>
<path d="M520.978 804.254C531.921 759.541 551.277 727.971 609.517 660" stroke="black" stroke-width="15"/>
<path d="M461.649 765.909C458.808 770.908 455.968 775.908 453.127 780.907C453.296 783.208 453.56 785.342 453.919 787.309C455.353 795.178 458.302 800.381 462.767 802.918C478.392 811.796 496.079 817.045 515.828 818.666C517.239 818.781 518.66 818.879 520.092 818.957C522.932 813.958 525.773 808.959 528.614 803.959C527.813 802.77 527.002 801.599 526.181 800.446C514.68 784.309 501.117 771.802 485.492 762.923C481.028 760.387 475.048 760.516 467.554 763.312C465.68 764.011 463.712 764.877 461.649 765.909Z" fill="black"/>
<path d="M372.035 427.5L424.635 659.501H100.016L47.416 427.5H372.035Z" stroke="black" stroke-width="15"/>
<ellipse cx="236.025" cy="544" rx="34" ry="40" fill="black"/>
<path d="M515.408 459.702C572.044 582.707 401.025 584.461 401.025 584.461" stroke="black" stroke-width="15"/>
</svg>
